<svg width="40" height="40" viewBox="0 0 40 40" xmlns="http://www.w3.org/2000/svg">
  <defs>
    <linearGradient id="logoGradient" x1="0%" y1="0%" x2="100%" y2="100%">
      <stop offset="0%" style="stop-color:#3B82F6;stop-opacity:1" />
      <stop offset="50%" style="stop-color:#8B5CF6;stop-opacity:1" />
      <stop offset="100%" style="stop-color:#4F46E5;stop-opacity:1" />
    </linearGradient>
    <linearGradient id="shieldGradient" x1="0%" y1="0%" x2="100%" y2="100%">
      <stop offset="0%" style="stop-color:#FFFFFF;stop-opacity:0.9" />
      <stop offset="100%" style="stop-color:#FFFFFF;stop-opacity:0.7" />
    </linearGradient>
  </defs>
  
  <!-- Background circle -->
  <circle cx="20" cy="20" r="18" fill="url(#logoGradient)" stroke="rgba(255,255,255,0.2)" stroke-width="1"/>
  
  <!-- Shield shape representing security and tokenization -->
  <path d="M20 4L10 9v8c0 6.2 4.2 10.9 10 12 5.8-1.1 10-5.8 10-12V9l-10-5z" 
        fill="url(#shieldGradient)" 
        stroke="rgba(255,255,255,0.3)" 
        stroke-width="0.5"/>
  
  <!-- Auction hammer icon inside shield -->
  <g transform="translate(16, 14)">
    <path d="M2 6L6 2l1.5 1.5L3.5 7.5 2 6z" fill="#1E40AF" opacity="0.8"/>
    <path d="M7.5 3.5L6 2l4-4 1.5 1.5-4 4z" fill="#1E40AF" opacity="0.8"/>
    <rect x="0" y="8" width="3" height="1" fill="#1E40AF" opacity="0.6"/>
  </g>
  
  <!-- Subtle glow effect -->
  <circle cx="20" cy="20" r="18" fill="none" stroke="url(#logoGradient)" stroke-width="0.5" opacity="0.5"/>
</svg>
